<svg xmlns="http://www.w3.org/2000/svg" xmlns:xlink="http://www.w3.org/1999/xlink" viewBox="0 0 435.73 397.28"><defs><style>.cls-1,.cls-15,.cls-9{fill:none;}.cls-11,.cls-2{fill:#09099d;}.cls-2{opacity:0.05;}.cls-12,.cls-3,.cls-5,.cls-7{isolation:isolate;}.cls-3{opacity:0.03;}.cls-4{fill:#92e3a9;}.cls-5{fill:#00a2f4;stroke-width:0.51px;}.cls-11,.cls-5,.cls-9{stroke:#fff;}.cls-10,.cls-11,.cls-14,.cls-15,.cls-16,.cls-17,.cls-18,.cls-19,.cls-5,.cls-7,.cls-9{stroke-linecap:round;stroke-linejoin:round;}.cls-5,.cls-7{opacity:0.5;}.cls-13,.cls-16,.cls-6{fill:#263238;}.cls-10,.cls-14,.cls-17,.cls-18,.cls-19,.cls-7{fill:#fff;}.cls-10,.cls-13,.cls-14,.cls-15,.cls-16,.cls-17,.cls-18,.cls-19,.cls-7{stroke:#263238;}.cls-13,.cls-14,.cls-15,.cls-16,.cls-7,.cls-9{stroke-width:1.17px;}.cls-8{clip-path:url(#clip-path);}.cls-11{stroke-width:0.5px;}.cls-12{opacity:0.15;}.cls-13{stroke-miterlimit:10;}.cls-17{stroke-width:1.17px;}.cls-18{stroke-width:1.17px;}.cls-19{stroke-width:1.17px;}</style><clipPath id="clip-path"><polygon class="cls-1" points="231.06 346.87 121.87 346.87 112.38 324.28 221.58 324.28 231.06 346.87"/></clipPath></defs><g id="Layer_2" data-name="Layer 2"><g id="Layer_1-2" data-name="Layer 1"><path class="cls-2" d="M416.8,295c19.47-48.76,26-106.38,9.67-156.9-19-59-72.44-92.81-134-98.31-41.76-3.75-84.76,12.18-109,46.75-14.52,20.67-25.81,44.44-44.86,61.67S93.41,168.8,70.71,179.07c-22,10-35.62,28.3-42.21,50.94a123.7,123.7,0,0,0,5.21,82.86c17.51,40.64,55.12,66.69,98.35,75.71,54,11.28,115.21,11.18,169.34.21S396.57,345.67,416.8,295Z"/><path class="cls-3" d="M429.29,147.75H139c-.15.14-.28.28-.43.41-13.72,12.41-31.18,17.66-48.38,23.51H433.93A192.76,192.76,0,0,0,429.29,147.75Z"/><path class="cls-3" d="M435.71,196.22H46.9A80,80,0,0,0,32,220.11H434.79A235.1,235.1,0,0,0,435.71,196.22Z"/><path class="cls-3" d="M23.79,268.58h402q3.34-11.77,5.63-23.9H25.23A123.37,123.37,0,0,0,23.79,268.58Z"/><path class="cls-3" d="M33.71,312.87c.6,1.41,1.24,2.8,1.9,4.17H406A159,159,0,0,0,416.8,295c.24-.6.47-1.2.7-1.8H27.12A120.14,120.14,0,0,0,33.71,312.87Z"/><path class="cls-3" d="M77.28,365.51H359.71a145.14,145.14,0,0,0,28.2-23.9H51.2A127.35,127.35,0,0,0,77.28,365.51Z"/><path class="cls-4" d="M237.71,396.54a417.36,417.36,0,0,0,63.61-7.75,172.66,172.66,0,0,0,45.58-15.87V287.07H237.71Z"/><path class="cls-5" d="M237.71,396.54a417.36,417.36,0,0,0,63.61-7.75,172.66,172.66,0,0,0,45.58-15.87V287.07H237.71Z"/><path class="cls-6" d="M237.71,396.54V287.07l-9.45-22.4V396.88C231.42,396.8,234.59,396.67,237.71,396.54Z"/><polygon class="cls-7" points="346.94 287.25 237.74 287.25 228.26 264.66 337.45 264.66 346.94 287.25"/><polygon class="cls-5" points="346.94 287.25 237.74 287.25 228.26 264.66 337.45 264.66 346.94 287.25"/><path class="cls-5" d="M231.06,346.67H121.87v39.41q5,1.41,10.14,2.47a422.81,422.81,0,0,0,99,8.22Z"/><polygon class="cls-4" points="231.06 346.87 121.87 346.87 112.38 324.28 221.58 324.28 231.06 346.87"/><g class="cls-8"><polygon class="cls-5" points="231.06 346.87 121.87 346.87 112.38 324.28 221.58 324.28 231.06 346.87"/></g><polygon class="cls-9" points="231.06 346.87 121.87 346.87 112.38 324.28 221.58 324.28 231.06 346.87"/><path class="cls-6" d="M112.38,383.17c3.12,1.08,6.29,2.05,9.49,2.94V346.67l-9.49-22.42Z"/><path class="cls-4" d="M33.71,312.87c14.94,34.8,44.67,58.87,80,70.8V311H32.91C33.17,311.67,33.4,312.26,33.71,312.87Z"/><path class="cls-5" d="M33.71,312.87c14.94,34.8,44.67,58.87,80,70.8V311H32.91C33.17,311.67,33.4,312.26,33.71,312.87Z"/><path class="cls-5" d="M33,311.21h80.72l-9.45-22.54H26.13A121.4,121.4,0,0,0,33,311.21Z"/><path class="cls-10" d="M397,121.29,341.45,55.21l-5.84,5.84,20.25,24.08L162.1,248.05l-44.7-50.7a11.69,11.69,0,0,0-16.5-1,12.57,12.57,0,0,0-1.34,1.39L.5,319.37l18.15,14.78,90.33-111,43.13,48.92a11.69,11.69,0,0,0,16.3,1.22L370.92,103l20.25,24.09Z"/><path class="cls-11" d="M426.45,40.15l-85,15.06L361.71,79.3,167.94,242.22l-44.7-50.71a11.71,11.71,0,0,0-17.85.35l-99,121.68,18.14,14.77,90.34-111L158,266.23a11.69,11.69,0,0,0,16.3,1.22L376.76,97.21,397,121.29Z"/><g id="freepik--Character--inject-2"><ellipse class="cls-12" cx="288.85" cy="275.98" rx="41.18" ry="7.13"/><path class="cls-13" d="M263.6,262.21s-6.62,10.14-6.23,12.87,7.79,5.85,10.13,7,17.16,2.73,19.11.39-2.73-3.12-5.46-4.29-9.75-7-9.75-7l-.78-6.63Z"/><path class="cls-14" d="M286.61,282.49c.61-.73.57-1.31.15-1.8-4.46.43-11.28.82-16.14-.15-5.68-1.13-10.72-5-13.05-6.94a3.74,3.74,0,0,0-.2,1.48c.39,2.73,7.79,5.85,10.13,7S284.71,284.83,286.61,282.49Z"/><path class="cls-13" d="M304.16,254.8s-7,7.8-5.46,10.14,6.63,1.56,9.75,4.29,7.8,6.24,12.48,7.8,8.58-1.17,6.63-2.73-10.92-9.36-11.7-12.09a31.62,31.62,0,0,1-.78-7Z"/><path class="cls-14" d="M327.81,276a20.85,20.85,0,0,1-6.1-.49c-3.51-.78-8.19-5.85-12.87-9.36-2.91-2.18-7.32-2.7-10.25-2.79a2,2,0,0,0,.11,1.62c1.56,2.34,6.63,1.56,9.75,4.29s7.8,6.24,12.48,7.8C324.13,278.1,327,277.16,327.81,276Z"/><path class="cls-11" d="M285.08,132.67s-5.62,20.3-4.45,26.15,9.1,54.25,9.1,54.25L263.6,262.2l9.75,5.46s34.32-44.84,34.71-50.3,1.32-47.82,1.32-47.82L331.85,210,302.6,254.4s4.68,3.9,7.8,3.9h5.07s37-46,37.44-48.74S328,151.49,328,151.49l-1.58-12.58Z"/><path class="cls-15" d="M292.8,146.72s2.83,6.8.28,10.49-7.65,5.1-7.65,5.1"/><line class="cls-15" x1="309.38" y1="169.55" x2="322.56" y2="157.78"/><path class="cls-15" d="M318.61,148.72l-2.09,4.47s5.67,1.49,3.29,4.18-3.88,3-3.88,3"/><line class="cls-15" x1="310.37" y1="169.4" x2="320.58" y2="163.16"/><path class="cls-15" d="M285.71,146.72a132.3,132.3,0,0,0-1.42,13.89"/><line class="cls-15" x1="270.3" y1="260.17" x2="268.7" y2="262.94"/><path class="cls-15" d="M285.43,166.28s6.23,44.22,6.8,45.64,2.83,1.42,2.27,2.55a5.84,5.84,0,0,1-2.27,2l1.42,3.12-21.07,36.64"/><line class="cls-15" x1="310.84" y1="251.44" x2="308.39" y2="255.29"/><path class="cls-15" d="M312.64,169.11s19.28,32.56,22.07,37.42,6.8,2.55,5.67,4.25-5.39,2.56-5.39,2.56l-21.88,34.52"/><path class="cls-6" d="M283.28,141.28a13.1,13.1,0,0,0,2.17,1.27c3.11,1.55,4.41,2.33,4.41,2.33l1-5.18,3.89.77-.52,4.41s-.52,1,4.67,1.3,6.81,1.29,6.81,1.29l1-6,3.89-.26V148a76.37,76.37,0,0,0,9.07-.52,13,13,0,0,0,5.44-2.07v-4.67L323,138.36l-37.92-5.69S284.24,137.25,283.28,141.28Z"/><path class="cls-14" d="M316.29,143.84v3.63a26.5,26.5,0,0,0,6.74-1.55l.51-3.11S317.58,143.32,316.29,143.84Z"/><path class="cls-14" d="M351.88,143.08l-6.05.51-4.66,5.53s4.49,3.62,6.91,5.87,4.49,4.31,6.39,3.79,8.45-9.49,8.45-11.56S355.5,141.35,351.88,143.08Z"/><path class="cls-14" d="M348.25,144.8a16.55,16.55,0,0,1,3.63-2.93,6.08,6.08,0,0,1,6.38.17c2.25,1.38,2.59,2.76,1.38,4.31s-5.86,7.08-6.21,5.7,1.73-5.7,1.73-5.7-2.77,6.39-6.56,2.25"/><path class="cls-15" d="M353.26,157.4s-2.76-2.59-2.76-3.79,3.62-4.32,3.62-4.32"/><polygon class="cls-14" points="344.45 140.31 347.91 143.08 342.21 149.81 339.1 146.87 344.45 140.31"/><polygon class="cls-11" points="327.37 124.55 345.83 140.23 338.17 147.89 322.49 137.44 327.37 124.55"/><path class="cls-14" d="M300.71,65.08s-9,4.81-10.46,12.76-5.86,52.77-5.86,56.74,11.29,8.79,21.12,9,19.87,0,21.34-3.35,4.4-41.47,3.14-52.35-4-16.94-8-19.66S306.16,62,300.71,65.08Z"/><path class="cls-15" d="M288.35,134.67s22.44-8.9,31.33-20.89"/><path class="cls-15" d="M286.8,137.33a62.68,62.68,0,0,0,27.85-3.48"/><path class="cls-14" d="M304.06,45.84s0,.39.06,1.06a68.49,68.49,0,0,1-.26,10.23l-.63,5.65,15.89,4.6s.63-3.34,2.1-8.15a48.92,48.92,0,0,1,4.39-9.63s-7.32-2.3-11.51-5.85S305.53,41.45,304.06,45.84Z"/><path class="cls-16" d="M319.54,16.35s4.6-3.56,1.89-10.46S307.2-.18,303,2.75s-2.09,4.81.21,5,3.34,2.72.42,3.56-6.28-1.26-11.09,4-.21,9.83.63,8.58,2.3-4.19,2.72-2.3-4.2,4.38-4.81,10.24,4.81,11.71,8.36,14.64,8.16,3.76,10.25,1,4.19-7.32,6.49-10.25-.42-10-1.26-12.76S319.54,16.35,319.54,16.35Z"/><path class="cls-14" d="M309.08,40.4s-2.92-4.39-5.64-2.93,0,7.53,2.51,9.42,5.85-1,5.85-1,5,7.11,8.79,7.11,15.27-.63,16.1-4.39-5.23-16.11-5.23-16.11,1.89-2.3,1.68-3.76-4.19-.84-5-1.47-2.93-6.06-5.44-9-3.76-2.93-3.76-2.93S305.71,22,308.71,24.09s4,.21,3.76,1.67-4.81,6.9-4,7.53,3.76,2.3,3.34,4.18S311.59,41,309.08,40.4Z"/><path class="cls-6" d="M326.14,27.75c.5,1.21.49,2.36,0,2.58s-1.35-.58-1.86-1.78-.49-2.36,0-2.58S325.63,26.55,326.14,27.75Z"/><path class="cls-15" d="M324.31,23.58S321.23,22.67,320,25"/><path class="cls-15" d="M331.39,37.92s-1.45,1.63-3.81.18"/><path class="cls-11" d="M271.61,93.18s-21.38.11-25.76.83.32,12.33.77,15.07S271.61,93.18,271.61,93.18Z"/><path class="cls-11" d="M317.42,70a19.69,19.69,0,0,1,3.12,19.5c-4.29,11.3-28.86,31.58-42.12,40.94a255.26,255.26,0,0,1-26.9,16.38s-14.81-12.11-19.11-23.4,1.15-17,16.75-22.44,35.5-12.26,39-22S296,61.86,303.22,62.79,317.42,70,317.42,70Z"/><path class="cls-16" d="M289,122.21s-14.43,5.46-26.91,9.36-28.07,3.12-27.68,6.24,9.36,9,11.31,10.14,5.85-1.56,10.53-2.73S282.71,130,289,122.21Z"/><polygon class="cls-14" points="241.4 157.55 239.87 169.92 242.34 170.23 243.61 159.98 264.47 162.56 263.21 172.81 265.68 173.12 267.21 160.75 241.4 157.55"/><rect class="cls-17" x="226.9" y="161.11" width="46.54" height="61.46" rx="4.74" transform="translate(29.62 417.1) rotate(-83.09)"/><line class="cls-15" x1="221.93" y1="189.29" x2="278.13" y2="196.48"/><polyline class="cls-14" points="228.78 168.48 224.27 205.77 227.45 211.6 231.96 207.09 236.74 169.42"/><rect class="cls-18" x="226.39" y="191.18" width="5.31" height="11.14" transform="translate(4.01 398.07) rotate(-82.48)"/><rect class="cls-19" x="228.25" y="190.6" width="1.33" height="11.12" transform="translate(4.62 397.59) rotate(-82.52)"/><polyline class="cls-14" points="268.07 173.58 263.54 210.81 266.72 216.65 271.23 212.13 276.01 174.46"/><rect class="cls-18" x="265.66" y="196.21" width="5.31" height="11.14" transform="matrix(0.13, -0.99, 0.99, 0.13, 33.15, 441.38)"/><rect class="cls-18" x="267.65" y="196.21" width="1.33" height="11.14" transform="matrix(0.13, -0.99, 0.99, 0.13, 33.15, 441.38)"/><path class="cls-11" d="M310.79,73.47s-4.29-2.34-11.31-1.56-41.72,21.84-46.77,24.18-4.68,9.35-4.68,9.35l3.12,44.85h9.74l6.24-43.68s44.69-11.86,46.09-20.7"/><path class="cls-14" d="M260.87,150.29l2.34,8.19s0,7.8-1.17,8.58-1.56,2.34-3.5.78l-2-1.56a31.12,31.12,0,0,0-4.29-.78c-1.17,0-3.51,0-4.29-2s3.12-13.26,3.12-13.26Z"/><path class="cls-16" d="M320,73.27l1.63,7.2a35.86,35.86,0,0,1-11.7,2c-6.63,0-17.94-10.53-25.73-16.38s-15.6,1.95-22.62,4.29-12.48,1.17-23.4-2.73-23,5.07-23,5.07l-3.48,8.58,10.92,5.85s10.14-11.31,17.55-11.31,21.84,5.46,27.3,2.34,9.75-9,13.65-8.19,21,17.94,29.58,18.73a12.37,12.37,0,0,0,12.09-5.85l3.12-9S320.71,66.45,320,73.27Z"/><polygon class="cls-14" points="321.84 66.96 325.82 67.38 331.46 77.21 325.61 72.82 322.04 74.28 321.63 70.94 321.84 66.96"/><polygon class="cls-14" points="300.21 56.06 322.89 65.29 322.47 74.91 297.28 62.76 300.21 56.06"/></g></g></g></svg>